<mxfile host="app.diagrams.net" modified="2022-03-01T10:01:55.679Z" agent="5.0 (Macintosh; Intel Mac OS X 10_15_7) AppleWebKit/537.36 (KHTML, like Gecko) Chrome/98.0.4758.102 Safari/537.36" etag="eg1QOuHTa9hBmPV9iOjx" version="16.6.4" type="github">
  <diagram id="SUu0aEt_KBrZpveDxCeU" name="Page-1">
    <mxGraphModel dx="1298" dy="809" grid="1" gridSize="10" guides="1" tooltips="1" connect="1" arrows="1" fold="1" page="1" pageScale="1" pageWidth="827" pageHeight="1169" math="0" shadow="0">
      <root>
        <mxCell id="0" />
        <mxCell id="1" parent="0" />
        <mxCell id="D_NvikzRbZOn3Y6WolN--1" value="" style="sketch=0;shadow=0;dashed=0;html=1;strokeColor=none;fillColor=#505050;labelPosition=center;verticalLabelPosition=bottom;verticalAlign=top;outlineConnect=0;align=center;shape=mxgraph.office.databases.database_mini_2;" vertex="1" parent="1">
          <mxGeometry x="730" y="180" width="60" height="70" as="geometry" />
        </mxCell>
        <mxCell id="D_NvikzRbZOn3Y6WolN--3" value="" style="sketch=0;pointerEvents=1;shadow=0;dashed=0;html=1;strokeColor=none;fillColor=#505050;labelPosition=center;verticalLabelPosition=bottom;verticalAlign=top;outlineConnect=0;align=center;shape=mxgraph.office.servers.application_server;" vertex="1" parent="1">
          <mxGeometry x="50" y="240" width="56" height="72" as="geometry" />
        </mxCell>
        <mxCell id="D_NvikzRbZOn3Y6WolN--4" value="" style="shape=mxgraph.cisco.computers_and_peripherals.laptop;sketch=0;html=1;pointerEvents=1;dashed=0;fillColor=#036897;strokeColor=#ffffff;strokeWidth=2;verticalLabelPosition=bottom;verticalAlign=top;align=center;outlineConnect=0;" vertex="1" parent="1">
          <mxGeometry x="715" y="538.64" width="90" height="61" as="geometry" />
        </mxCell>
        <mxCell id="D_NvikzRbZOn3Y6WolN--5" value="" style="shape=mxgraph.cisco.computers_and_peripherals.laptop;sketch=0;html=1;pointerEvents=1;dashed=0;fillColor=#036897;strokeColor=#ffffff;strokeWidth=2;verticalLabelPosition=bottom;verticalAlign=top;align=center;outlineConnect=0;" vertex="1" parent="1">
          <mxGeometry x="648" y="599.64" width="90" height="61" as="geometry" />
        </mxCell>
        <mxCell id="D_NvikzRbZOn3Y6WolN--6" value="" style="shape=mxgraph.cisco.switches.atm_switch;sketch=0;html=1;pointerEvents=1;dashed=0;fillColor=#036897;strokeColor=#ffffff;strokeWidth=2;verticalLabelPosition=bottom;verticalAlign=top;align=center;outlineConnect=0;" vertex="1" parent="1">
          <mxGeometry x="460" y="592.5" width="54" height="56" as="geometry" />
        </mxCell>
        <mxCell id="D_NvikzRbZOn3Y6WolN--7" value="" style="shape=mxgraph.cisco.computers_and_peripherals.laptop;sketch=0;html=1;pointerEvents=1;dashed=0;fillColor=#036897;strokeColor=#ffffff;strokeWidth=2;verticalLabelPosition=bottom;verticalAlign=top;align=center;outlineConnect=0;" vertex="1" parent="1">
          <mxGeometry x="260" y="590" width="90" height="61" as="geometry" />
        </mxCell>
        <mxCell id="D_NvikzRbZOn3Y6WolN--8" value="" style="shape=image;verticalLabelPosition=bottom;labelBackgroundColor=default;verticalAlign=top;aspect=fixed;imageAspect=0;image=data:image/jpeg,/9j/4AAQSkZJRgABAQAAAQABAAD/2wCEAAoHCBIRFBYWEhUYEhUaGBkcGhgYFRgZGBgYGRoaHBkZGRocLi4lHB4rIRwYJjgmODA0NTU1GiQ7QDszPy40NTEBDAwMEA8QHhISHjQhISsxNDE0NDQ2NDQ3NDQ0MTQ2NDExNDQ0PzQxMTQxMTQ0NDQxNTE/PTQ0ND0xNDQ0NDQ0Mf/AABEIAMIBAwMBIgACEQEDEQH/xAAcAAEAAgMBAQEAAAAAAAAAAAAABAUCAwYHAQj/xAA+EAACAQIDBAcGBQMCBwEAAAABAgADEQQSIQUxQVETFCJTYXGSBjJSgZGhQmKxwdEH4fAjwiRyk6Ky0vFD/8QAGAEBAQEBAQAAAAAAAAAAAAAAAAECAwT/xAAhEQEBAQEAAgICAwEAAAAAAAAAARECEjEDISJRYXGxQf/aAAwDAQACEQMRAD8A8biIndCIiAiIgIiICIiAiIgIiICJnTpsxsoLHkBeXlP2Q2g9I1Vw7sgJFlXM9ha7ZRqRrv8AOS2QUETJlIJBFiNCDvBmMoREQEREBERAREQEREBERAREQEREBERAREQEREBERAREQEREBNtFVJ7RyrxtqfkJqmSW4wOp2K5LAYZES293zMQPiOXX9BPZvY2nXRENY3BQt2QwWzN2TYs1iQp/tPD9m7bp0QoNFKgHBswB1vfQixnqX9O6uIqs1WnRalQtTQKKt1WwZyVVwTlOcbm38Jy7n0sX/tZ/T/CbTBcjoMRwqqouxtYdIu5xu10Om/hPCPab2axOzavRYlLXuUcXKOBvKnw0uN4uLjUT9VJ95U+0+wKO0cO9CsNDqrW7SOB2XXxH3BI4znz3Z/S2PyhEmbUwFTDVqlGqMr02KsOFwd45g7weIIkOehkiIlCIiAiIgIiICIiAiIgIiICIiAiIgIiICIiAiIgIiICWuA2LVqqH7CUycud6tNAD4hmBA8bTDYuy6uKcpSQvlUsxC5sqjebcTwA5mTBhaTauXY/ma+ny3eUxepGpzav9mbASkyuMdgaeUBmfplqvYbwqKCP/AJO3obQ2Cal3xDJUDtdg9VKb5LICy+5+HTQTys7OoH8LAc1b+bzfS9mXqAmi6t+VtD9ZzvfN93F8On6L2PisLUUdWqpUWw91w1hw8RLWflOkmIwlRaiE03Q6OjDeP1E9J9m/6uVAUp42i1QkgdJSHaJPOnuJ8j8pnr49+5dT17a/657ACtSxtNfe/wBOqR8QF6bH5Blv4KJ4/P1RtzC09qYCtTTtCpTOXMjKVcdpMyNYqQwXQ2M/LLKQbEWI0IPA8p1+LrZiVjEROiEREBERAREQEREBERAREQEREBERAREQEREBERAREQO19m6D9HiKFBylSrT0toXCqS1O43XsT4kAcZv2V7MNWuXQHz/neJz+ysQ9OqjoTcajU77afzOlO0MQq5M5VRbKVRHy/wDOjWDeB3jhPL82y/jcduMs+0zEewOJRS+FcE2uaTNdWHJWP6H6zPYdNgrBkem4OVlI42HuniNdDKyptLEoAaeJqs1re6VQnW5OY3HDQaaeMxobRqXLFtSSdDxM52W85brUuX6XmC9iWxRNbFOtJfwUb6AW/GRvN+APmd4kfaHs1RVSKbqSB5f2lX1x66hKpqOg3KtRVU8bMGVg3hu3nnMX2b+JVKnLluWzME+EZVVQPlfxj7/7c/gki59jPa7E4J1SpUarh81mR2zZEBsWRjquUdrLuIBFtxHLf1H2YMLtPEoBZWfpF5WqAMbeAYsPlMqNIZaiH4WYemzD9Jdf1ZTpepYof/pRem3LNQci/mc/2no4965dc486iInZgiIgIiICIiAiIgIiICIiAiIgIiICIiAiIgIAiSKVK432vwHE8oGoITGljcEGT8DsypXYJTXMx5sqjwuzEKPmZv23sLFYMqMRTNMMLqQVZGHEqyEqfEX00vJs3DE72Xwoq1aaH8ast+RyNr9Z2OxdmDFqjhgj27acQw0bTlcGcf7LVhSrU3Y2yPr5HT9C0n4rMa2JpXyOlRmSx1sdb6fI+V55/m5t9fTv8XWOr9pdkUsPRJLrn0sl+0fG3AeM47D4ZnJABuN9hJWzNqpTYHEqVYG92W6MVsdCdGnU+ye3cRjMRXOEw2GZSCzu6MMptZAcp/ERutfRjOHM65l/1bY5/YuGKOHqIxpZsrlRcg20M6rEVcAEY9KAORVw30tcyjq+0OMU1aGKwzU3zXZKNNspPAgDMSDob3IMq2p1KrBmQ0kB0ViCzvwuBuA389B851zbdv0vN/SvxLDrBCg5MpGvIzqqmHTE7DwzVVLmniXVQoOufObHkLkfScy6gO7fDp9FvOh2ViM+yBTUlWXHG9ja4akWFvDW3ynq59Ry7u1D2X7NYeoc9RAUXeqAWzcixIvbiBebH9k8HjAWwzGnl96wAA/b/N8l7QxQw1BKa6NbW3M+XnNuzMT0eHqMeYN+elyPtab2sPMtq7POHqMhYOAdGG4+HnIM7s4Fa2HdmHEtccCSSCPKcTiKDIbN8jzHOblRqiIlCIiAiIgIiICIiAiIgIiICIiAiJtopc7tIGaUDoTr4SZ0YCk7gPlb+8ypU9LXtyvp5TDGVUuoAuLAtbnbQfvBDAU0rErVq9EN4ZlZlvY7wuvLXznU7Yxi09n0cK2ITE3qdIhSxWkiq6subfdi17HW3Kc8mER1upAPK9jOn2X7U1KVNKGLw9LG4dBZUqIuZBwyNbScr7125n42OVp1lVrjXQX04j/PvJeLxjJiBXs1mVMwIsSQihvuL/OdX7QeyuHrUKWL2ZTdFdsj4d8xKsbkMpJJy3uN5GotbWVO2AEpU6JQB6faqXUFw7gWU34Kv/lHlOvok8ZtX+w8UikHVqT21DMpW/iP0M6HbK4PCUhWY13V3VSqOBqwPaO640855jsja7YRjcdJh395BvW/Fb7j9jPQdsYWljdk1XosKqoFfsnUZLFlI/C1r6GePr4vHub6tbvWzVpszD4GtQTEIjXdSbVHLEWYixtv1EpdtOtJHrOAEQWRQALsdBYfb6mWuw6VHDbLw1Ss6016PNdmGuYkgLb3ibjQTzX2n2y+MfeUpLpTQan/AJm4Zj9t3Mlz8V67v6lTyyIlGsTScnVnqm/0BNvsJc+zObMRchAxci+hKrlv/wB32kTZOyC6ZmOWnTDMxvqzHgPoo/STkcU6ZAGUnS3EAa/qTPbjjUPHV+kxH5VmzFbQ/wCHrIB2i1gQfisJW0HsWJNiSTcz5syqr1bPohYMb/l1/aaxF/Vcph0S1i5ReNwNL/QWlXtzZ6up4Ebj/nCb1x4r4hT+BNfkATIWNxxqXfcGYhR+UaX+ZiDlmQqSDoRMZb7Zw3bJXUgC/wBJUTSEREBERAREQEREBERAREQERED6q3m9XZeyN/PlI8zp7/OB8JuddfObsGbONM00kay32BRDVBcZiOA3/LnF9LzNq5bZyugYlVJNrEW++6TcLgcTh8rBOkW+iumdDyFt/wBDLzD+z9SspcZQmW4Yt2bDfv3S02Vs98JaqcStOjobK4cOd+VU1BJ8p571+nrkk9pO2/ah6OFSk1HoMVUpnJksqIPdzanMrAaga68Z5hiFrMzVczO5JNQsSzMeJYneZ0e3enxFTp6jF20toBZRqAABbj9TMDh8yiqmunaG69vHnN8ySPN1drmBRp1FuvYNu0Bw+RmpMNUoEmlUdCRYhC4JFiSDl1Itc+V5e4vZKVe3RJpv8vvzlZiHxFMnOqsV8CDyJB1m/aa1VVc5S7u7AWzMxNhpZVBvlAHCR2cj/P0jrl750bwswI/aaijOQT2V4DwG8mWRNdXhK2WhSogdpzmY3PuLru+3zkTalU2y33ab7i3CYbN9w1nJ17CD8i+8fmdPlIuMqZnA8ftIItZ+FpERrf5zmdZu0ZpmkbaWKZEYLvYWvxF9/wCk34WqAc7e5TACD4nG7+T8pAZpkgLFRYtroo3mBOQlyoPvOS7E8t+vhb9ZT4hArabjqPIyyr1Cl1uDUfRmG5V+Ff3M14rD9m7dgfgB32gVkREBERAREQEREBERAREQEREBN1IXBtvGs0yRhtIElMKzWKdry1P04yXhMLUzApdWB0tcMD4W1vMsFoewcpPhpOioYroaLvUfMQDlWw7bnQA2138PC8lqvlCtUFaimJqvVSoLlS7FfAEbm115aTsMZs1GZMuhJB3a2G7Q25fbynnL4q7YO9gVVV0/LpPTumuqG+7d4aW+c59TPS7rZV2aCtrb93EHfz4ygp4Y4apkf3G/c7rGdia9kBNr8OAty10kHaaJiqZyjtjlbfyvMyjm8fgghzoeyTzH6TVRemWHSKGG43GpBFj+8yp7QyEpVuEvx0t9ZVbSORrqwKX3jW02IWL2TlrFAex72b8m+/nw85W7QIY2TRd3yG4S0xW1aZXIDuHvtoSeVuA+coaldb+8PqJqalWL40MoUDKFAUAcgJDSplYMRcSL0y/EPqIfEqVAuNDzEo3bQUZyV91tR85CM2Bi3u3byBP6TCvSdBdkZQdAWVgCeQJ3wjSg5fU/tJ1CuqLlAIv7zi2c+AJ3DwkFGuBMs0onriKaH/Sp3b4nbMfpuH0mLuXa7JmbnmN/7SNQpO26wHEk2AkpEYDKhtf3nbTT8g328YEHF0dSRv4iRJbPhkA01PPNqZW1qZUnSwga4iICIiAiIgIiICIiAiIgfQLyZh6UjUxJYrhBuueA/mBaUujormc+S8W8hI2HrvjsRRpucqF1UKDYKCdTfn4ypq1Wc3Y3Ml7DqZMRRblUT/yElg9no7DwWGVcnR1BvDPh6LkHmGftD6nzlgmJp2AD0wBu/wCHw+k81qbYewAYjKLCxImsbYqfG/qM4+Na16quLQ6GqluXQYebqNamputRQTxWhQB+yzygbaqfG3qM+rtup8beoyeNNesHoX95lc+NCgf9k2hKHNf+jQH+yeTLtqp8beozaNtVPjb1GPGmvWUFDw/6dH9km1Wo+Hop/wDpPJF2zU+NvUZITbD/ABH6mPCmvV1enwJHkE/9JtV+Tv8AIqP9s8wpbXc/iP1Mu9l48sbFj9ZPFL07gEn8T+v+02V8ElSmy1LurKcyOc6MOIZToRKbBV+O+TsbiimGr1D+Gm5+indMWEuvy/i8i1XFO+QOwXW/ZzHL56WnwON8nbP9ncTW1CFF+J+yPkDqZZ0NiU6TWqo72/ESvR35kISbfOerUUVLpH0RSR4DQfxJJ2bV3kgHxJvOhqOU7OQottOjPYI52kCviAR2Tm+Vj8xxl0VXVsg1IvzI/m8iVsw5fIASdXxAP+fpK13vKNcREBERAREQEREBERAQIiBsz2msm8RATOkbMPOYT6u8QLIVzMhWkHPHSGTBP6afRWkEOZkHjBPWvNq4iVwqT6HjBZpiJvTEyoWpNqVZMHQ4fFeMvtl4uzDWcVRrS2weJtxmbEr1DBV77pM9s8UaWy65U5WKhAfF2Cj9ZzOw8bmy6zd/U7HBcCiX9+ov/aC36gTln5Qjz/ZWJYt/qVsht7mUsH03D4W8f5mzFY0FcysVPIDfbnOarYi3HUWIPMT42NaxJ333+e+ejGtWbbaLKQwsR9fP+ZAxmJDG4Nr7iP3kCq92vzmomXEZM1/84zCIgIiICIiAiIgIiICIiAiIgIiICfQZ8iBlmjNMYgZhpkHmqLwNwafQ003n0GBvDzNXkbNMg0CYtWS6OJtKkPMlqSYO52BtGzAXj+pO1ekFBAdAGY+egH7zlMBiyrCbNt4oVWW4Y5V4EAC513jymfH71IqC14Z59KeY87T5lm1YRMrz4TA+WiIgIiICIiAiIgIiICIiAiIgIiICIiAiIgIiICIiAvF4iB9vF58iBmjkHfaZs5O8kzTF4GwtMSZjEBERAREQEREBERAREQOy6lS7tPQsdSpd2noWImA6lS7tPQsdSpd2noWIgOpUu7T0LHUqXdp6FiIDqVLu09Cx1Kl3aehYiA6lS7tPQsdSpd2noWIgOpUu7T0LHUqXdp6FiIDqVLu09Cx1Kl3aehYiA6lS7tPQsdSpd2noWIgOpUu7T0LHUqXdp6FiIDqVLu09Cx1Kl3aehYiA6lS7tPQsdSpd2noWIgOpUu7T0LHUqXdp6FiIDqVLu09Cx1Kl3aehYiA6lS7tPQsdSpd2noWIgOpUu7T0LHUqXdp6FiIDqVLu09Cx1Kl3aehYiA6lS7tPQsRED//Z;" vertex="1" parent="1">
          <mxGeometry y="538.64" width="150" height="112.36" as="geometry" />
        </mxCell>
        <mxCell id="D_NvikzRbZOn3Y6WolN--10" value="" style="html=1;shadow=0;dashed=0;align=center;verticalAlign=middle;shape=mxgraph.arrows2.arrow;dy=0.67;dx=20;notch=0;fillColor=#7EA6E0;" vertex="1" parent="1">
          <mxGeometry x="160" y="620" width="100" height="6" as="geometry" />
        </mxCell>
        <mxCell id="D_NvikzRbZOn3Y6WolN--13" value="" style="html=1;shadow=0;dashed=0;align=center;verticalAlign=middle;shape=mxgraph.arrows2.arrow;dy=0.67;dx=20;notch=0;fillColor=#7EA6E0;" vertex="1" parent="1">
          <mxGeometry x="350" y="620" width="100" height="6" as="geometry" />
        </mxCell>
        <mxCell id="D_NvikzRbZOn3Y6WolN--14" value="" style="html=1;shadow=0;dashed=0;align=center;verticalAlign=middle;shape=mxgraph.arrows2.arrow;dy=0.67;dx=20;notch=0;fillColor=#7EA6E0;" vertex="1" parent="1">
          <mxGeometry x="538" y="614" width="100" height="6" as="geometry" />
        </mxCell>
        <mxCell id="D_NvikzRbZOn3Y6WolN--15" value="" style="html=1;shadow=0;dashed=0;align=center;verticalAlign=middle;shape=mxgraph.arrows2.arrow;dy=0.67;dx=20;notch=0;fillColor=#7EA6E0;flipH=0;flipV=1;direction=south;rotation=330;" vertex="1" parent="1">
          <mxGeometry x="710" y="390" width="6" height="100" as="geometry" />
        </mxCell>
        <mxCell id="D_NvikzRbZOn3Y6WolN--16" value="" style="html=1;shadow=0;dashed=0;align=center;verticalAlign=middle;shape=mxgraph.arrows2.arrow;dy=0.67;dx=20;notch=0;fillColor=#7EA6E0;rotation=350;" vertex="1" parent="1">
          <mxGeometry x="638" y="250" width="100" height="6" as="geometry" />
        </mxCell>
        <mxCell id="D_NvikzRbZOn3Y6WolN--17" value="" style="fontColor=#0066CC;verticalAlign=top;verticalLabelPosition=bottom;labelPosition=center;align=center;html=1;outlineConnect=0;fillColor=#CCCCCC;strokeColor=#6881B3;gradientColor=none;gradientDirection=north;strokeWidth=2;shape=mxgraph.networks.comm_link;direction=south;rotation=355;flipV=1;" vertex="1" parent="1">
          <mxGeometry x="139.9" y="217.82" width="540" height="30" as="geometry" />
        </mxCell>
        <mxCell id="D_NvikzRbZOn3Y6WolN--18" value="" style="html=1;shadow=0;dashed=0;align=center;verticalAlign=middle;shape=mxgraph.arrows2.twoWayArrow;dy=0.65;dx=22;fillColor=#7EA6E0;direction=south;" vertex="1" parent="1">
          <mxGeometry x="69.95" y="340" width="10.05" height="180" as="geometry" />
        </mxCell>
        <mxCell id="D_NvikzRbZOn3Y6WolN--19" value="Hacker" style="text;html=1;strokeColor=none;fillColor=none;align=center;verticalAlign=middle;whiteSpace=wrap;rounded=0;" vertex="1" parent="1">
          <mxGeometry x="40" y="648.5" width="60" height="30" as="geometry" />
        </mxCell>
        <mxCell id="D_NvikzRbZOn3Y6WolN--20" value="Entry point" style="text;html=1;strokeColor=none;fillColor=none;align=center;verticalAlign=middle;whiteSpace=wrap;rounded=0;" vertex="1" parent="1">
          <mxGeometry x="260" y="648.5" width="70" height="30" as="geometry" />
        </mxCell>
        <mxCell id="D_NvikzRbZOn3Y6WolN--21" value="Network switch" style="text;html=1;strokeColor=none;fillColor=none;align=center;verticalAlign=middle;whiteSpace=wrap;rounded=0;" vertex="1" parent="1">
          <mxGeometry x="457" y="649" width="63" height="30" as="geometry" />
        </mxCell>
        <mxCell id="D_NvikzRbZOn3Y6WolN--22" value="Privileged devices" style="text;html=1;strokeColor=none;fillColor=none;align=center;verticalAlign=middle;whiteSpace=wrap;rounded=0;" vertex="1" parent="1">
          <mxGeometry x="738" y="651" width="60" height="30" as="geometry" />
        </mxCell>
        <mxCell id="D_NvikzRbZOn3Y6WolN--23" value="Application Servers" style="text;html=1;strokeColor=none;fillColor=none;align=center;verticalAlign=middle;whiteSpace=wrap;rounded=0;" vertex="1" parent="1">
          <mxGeometry x="619.9" y="360" width="60" height="30" as="geometry" />
        </mxCell>
        <mxCell id="D_NvikzRbZOn3Y6WolN--24" value="Database" style="text;html=1;strokeColor=none;fillColor=none;align=center;verticalAlign=middle;whiteSpace=wrap;rounded=0;" vertex="1" parent="1">
          <mxGeometry x="738" y="250" width="60" height="30" as="geometry" />
        </mxCell>
        <mxCell id="D_NvikzRbZOn3Y6WolN--25" value="Hacker C&amp;amp;C Server" style="text;html=1;strokeColor=none;fillColor=none;align=center;verticalAlign=middle;whiteSpace=wrap;rounded=0;" vertex="1" parent="1">
          <mxGeometry x="30" y="210" width="90" height="30" as="geometry" />
        </mxCell>
        <mxCell id="D_NvikzRbZOn3Y6WolN--26" value="" style="shape=mxgraph.cisco.servers.file_server;sketch=0;html=1;pointerEvents=1;dashed=0;fillColor=#036897;strokeColor=#ffffff;strokeWidth=2;verticalLabelPosition=bottom;verticalAlign=top;align=center;outlineConnect=0;" vertex="1" parent="1">
          <mxGeometry x="605" y="280" width="43" height="80" as="geometry" />
        </mxCell>
        <mxCell id="D_NvikzRbZOn3Y6WolN--28" value="" style="shape=mxgraph.cisco.servers.file_server;sketch=0;html=1;pointerEvents=1;dashed=0;fillColor=#036897;strokeColor=#ffffff;strokeWidth=2;verticalLabelPosition=bottom;verticalAlign=top;align=center;outlineConnect=0;" vertex="1" parent="1">
          <mxGeometry x="660" y="282" width="43" height="78" as="geometry" />
        </mxCell>
      </root>
    </mxGraphModel>
  </diagram>
</mxfile>
